<svg xmlns="http://www.w3.org/2000/svg" xmlns:xlink="http://www.w3.org/1999/xlink" width="500" zoomAndPan="magnify"
  viewBox="0 0 375 374.999991" height="500" preserveAspectRatio="xMidYMid meet" version="1.0">

      <path fill="#020203"
        d="M 349.523438 185.273438 L 171.585938 82.96875 C 171.648438 130.226562 171.648438 177.496094 171.648438 224.765625 L 171.648438 233.515625 C 174.09375 232.359375 175.566406 231.773438 176.933594 230.988281 C 184.695312 226.503906 192.347656 221.808594 200.242188 217.558594 C 203.535156 215.808594 204.484375 213.640625 204.464844 210.101562 C 204.300781 188.527344 204.332031 166.964844 204.332031 145.390625 C 204.332031 140.359375 205.027344 139.957031 209.332031 142.433594 C 233.710938 156.414062 258.089844 170.402344 282.429688 184.445312 C 283.777344 185.210938 284.851562 186.441406 286.570312 187.871094 C 278.523438 192.632812 271.128906 197.09375 263.664062 201.410156 C 239.734375 215.226562 215.785156 229.011719 191.835938 242.808594 C 181.085938 249 170.359375 255.21875 159.613281 261.433594 C 155.878906 263.589844 154.613281 262.925781 154.613281 258.976562 C 154.640625 201.167969 154.386719 143.347656 154.949219 85.546875 C 155.011719 78.453125 153.464844 73.890625 149.292969 70.15625 C 147.851562 68.835938 146.082031 67.648438 143.957031 66.46875 C 115.566406 50.792969 87.691406 34.171875 59.589844 17.941406 C 48.363281 11.433594 37.09375 5.015625 25.8125 -1.410156 C 24.945312 -1.890625 23.953125 -2.199219 22.4375 -2.8125 L 22.4375 378.199219 C 25.792969 376.347656 28.707031 374.769531 31.570312 373.132812 C 38.195312 369.355469 44.730469 365.457031 51.390625 361.773438 C 54.734375 359.921875 54.988281 356.953125 54.988281 353.699219 C 54.957031 313.574219 54.9375 273.425781 54.925781 233.28125 C 54.894531 178.015625 54.875 122.746094 54.84375 67.484375 C 54.84375 64.1875 54.875 60.902344 54.816406 57.628906 C 54.753906 54.21875 56.226562 54.109375 58.691406 55.621094 C 61.636719 57.402344 64.539062 59.277344 67.609375 60.800781 C 70.53125 62.285156 71.675781 64.484375 71.636719 67.65625 C 71.554688 73.5 71.636719 79.335938 71.636719 85.1875 C 71.636719 171.304688 71.617188 257.429688 71.667969 343.546875 C 71.667969 345.09375 72.371094 346.636719 72.761719 348.183594 C 74.253906 347.710938 75.878906 347.507812 77.210938 346.75 C 84.890625 342.441406 92.417969 337.828125 100.1875 333.703125 C 103.789062 331.789062 104.914062 329.28125 104.863281 325.433594 C 104.71875 314.207031 104.839844 302.960938 104.839844 291.734375 C 104.839844 229.871094 104.839844 168.019531 104.820312 106.15625 C 104.820312 99.863281 104.59375 93.578125 104.542969 87.285156 C 104.523438 85.882812 104.769531 84.472656 104.972656 82.167969 C 110.507812 85.300781 115.160156 87.652344 119.472656 90.550781 C 120.710938 91.390625 121.480469 93.792969 121.480469 95.492188 C 121.632812 126.796875 121.632812 158.09375 121.632812 189.40625 C 121.613281 231.476562 121.582031 273.578125 121.570312 315.671875 C 121.550781 319.886719 122.632812 320.542969 126.355469 318.421875 C 141.796875 309.59375 157.21875 300.71875 172.609375 291.816406 C 199.003906 276.589844 225.347656 261.308594 251.730469 246.09375 C 282.929688 228.121094 314.148438 210.171875 345.378906 192.261719 C 351.292969 188.863281 352.671875 187.636719 349.523438 185.273438 Z M 349.523438 185.273438 "
        fill-opacity="1" fill-rule="nonzero" />

</svg>